<?xml version="1.0" standalone="no"?>
<!DOCTYPE svg PUBLIC "-//W3C//DTD SVG 20010904//EN"
 "http://www.w3.org/TR/2001/REC-SVG-20010904/DTD/svg10.dtd">
<svg version="1.0" xmlns="http://www.w3.org/2000/svg"
 width="2522.000000pt" height="2522.000000pt" viewBox="0 0 2522.000000 2522.000000"
 preserveAspectRatio="xMidYMid meet">
<metadata>
Created by potrace 1.14, written by Peter Selinger 2001-2017
</metadata>
<g transform="translate(0.000000,2522.000000) scale(0.100000,-0.100000)"
fill="#000000" stroke="none">
<path d="M10615 24991 c-11 -5 -40 -13 -65 -19 -40 -10 -1114 -522 -1133 -541
-4 -4 67 -115 158 -247 92 -131 199 -291 240 -354 168 -265 341 -592 436 -823
44 -108 223 -636 231 -684 2 -12 -4 -19 -18 -21 l-20 -3 19 -88 20 -88 -118
-474 c-160 -645 -158 -638 -285 -894 -59 -121 -114 -237 -121 -257 -11 -33 -5
-164 46 -928 32 -489 57 -892 54 -895 -11 -10 -471 135 -754 239 -194 70 -453
57 -783 -39 -234 -68 -380 -130 -812 -342 -309 -151 -315 -154 -293 -171 104
-80 571 -457 569 -459 -2 -2 -61 19 -132 46 -106 40 -198 64 -514 130 -212 45
-392 84 -401 87 -11 3 -70 -39 -165 -115 -81 -66 -149 -119 -151 -118 -8 8 40
292 51 301 76 64 147 109 193 122 48 14 66 14 134 3 l79 -13 107 105 c124 119
127 121 526 313 153 73 280 136 282 138 9 9 -746 -115 -1075 -176 -102 -19
-187 -32 -189 -30 -2 2 26 221 64 486 l68 483 73 57 c40 32 81 69 90 82 25 40
29 100 9 166 l-18 58 56 339 c73 437 87 544 87 653 0 327 -121 605 -374 855
-148 148 -299 226 -499 261 -249 44 -551 -41 -787 -220 -47 -35 -192 -166
-323 -289 l-238 -225 -57 -7 c-72 -9 -115 -27 -167 -69 -55 -46 -94 -119 -102
-196 -4 -45 -13 -70 -31 -92 -24 -28 -24 -31 -9 -63 l16 -33 -392 -354 c-216
-195 -572 -519 -792 -720 -220 -200 -432 -394 -472 -429 -39 -35 -72 -67 -72
-70 -1 -3 34 -26 77 -51 173 -103 340 -173 529 -224 121 -32 81 -53 329 177
253 235 553 504 884 793 157 137 297 260 311 273 24 22 27 23 62 8 20 -8 43
-12 52 -9 9 4 41 -1 71 -11 169 -53 321 75 329 278 l2 60 269 228 c296 251
304 256 379 219 48 -23 79 -73 90 -145 4 -23 -8 -158 -29 -325 -49 -388 -41
-353 -82 -375 -93 -50 -119 -200 -49 -283 17 -21 25 -42 25 -69 0 -21 9 -55
20 -76 l20 -37 -44 -332 c-24 -183 -61 -463 -82 -623 -20 -159 -40 -293 -43
-297 -3 -4 -114 -30 -246 -58 -761 -163 -1626 -382 -2450 -619 -153 -44 -280
-83 -284 -86 -11 -12 -13 -1011 -2 -1317 99 -2703 728 -5245 1806 -7298 240
-458 359 -663 566 -975 802 -1212 1985 -2544 3399 -3831 822 -747 1923 -1640
2559 -2076 113 -77 222 -153 241 -168 62 -48 537 -362 794 -524 l248 -157 197
123 c728 454 1630 1084 1966 1372 1434 1231 2700 2500 3732 3739 501 601 977
1236 1238 1652 48 77 140 221 205 320 367 564 667 1146 928 1800 249 621 474
1368 592 1958 27 138 353 2358 346 2364 -1 1 -286 -397 -633 -885 -347 -488
-671 -938 -719 -999 l-88 -113 -43 198 c-450 2080 -1324 4087 -2358 5417 -638
820 -1293 1314 -1931 1457 -87 20 -127 22 -324 22 -219 0 -228 -1 -340 -31
-140 -38 -263 -89 -373 -155 l-82 -49 -70 73 c-39 40 -122 128 -185 195 l-115
122 -264 -85 c-145 -47 -265 -83 -268 -81 -2 2 -10 116 -18 253 -41 699 -104
1081 -252 1538 -249 768 -617 1347 -1245 1962 -492 480 -1094 933 -1692 1269
-75 43 -145 88 -155 101 -10 13 -20 24 -22 23 -2 0 -13 -4 -24 -8z m-69 -496
c24 -36 181 -375 267 -575 129 -301 241 -660 376 -1210 100 -403 107 -440 95
-487 l-9 -38 -155 -27 c-85 -15 -162 -27 -170 -28 -12 0 -26 35 -54 131 -73
252 -218 704 -263 818 -116 296 -335 706 -570 1066 -47 71 -81 131 -77 132 5
2 124 57 264 122 140 66 261 120 267 120 7 1 20 -10 29 -24z m422 -156 c486
-312 934 -670 1322 -1059 496 -495 781 -916 1003 -1480 207 -524 287 -943 332
-1730 17 -310 30 -443 51 -545 49 -244 233 -658 366 -827 l30 -38 -41 0 c-77
0 -297 22 -411 41 -94 15 -132 27 -205 64 -49 25 -115 64 -145 88 l-55 44 -89
268 c-75 226 -95 303 -133 499 -50 262 -116 563 -174 794 -58 234 -143 512
-154 509 -23 -8 -68 -90 -110 -202 -77 -207 -139 -320 -220 -401 l-70 -72 67
-283 c37 -156 68 -290 68 -297 0 -8 -38 -78 -85 -156 l-85 -142 18 -228 18
-229 -266 -197 c-473 -352 -485 -361 -487 -348 -2 7 -39 238 -83 513 -44 275
-81 510 -83 522 -4 20 31 43 288 196 160 96 319 185 354 197 35 13 65 29 68
36 2 7 -5 76 -16 154 -12 78 -21 146 -21 152 0 12 -19 8 -137 -28 -80 -24 -83
-26 -119 -80 -58 -87 -129 -159 -210 -214 -98 -65 -181 -90 -293 -89 -156 2
-164 -8 172 216 166 110 320 210 342 221 22 11 82 32 133 48 76 24 92 32 92
49 -1 31 -36 264 -41 270 -5 4 -1014 -566 -1031 -583 -6 -6 1 -99 22 -273 32
-258 32 -268 20 -424 -6 -88 -13 -162 -15 -164 -2 -2 -39 23 -82 55 l-78 59
-22 200 c-32 293 -53 464 -61 485 -6 17 -257 150 -283 150 -5 0 -7 -10 -4 -22
3 -13 9 -59 13 -103 l7 -80 146 -105 c137 -98 145 -105 116 -108 -76 -8 -181
36 -207 88 -10 20 -26 43 -35 50 -16 13 -16 5 -9 -110 5 -69 7 -143 6 -165 -2
-35 5 -49 54 -110 31 -38 63 -80 72 -93 11 -17 27 -151 62 -515 26 -271 46
-493 45 -495 -2 -2 -52 11 -113 29 l-111 32 -6 61 c-3 33 -26 371 -51 751 -24
379 -48 693 -52 697 -5 5 -38 17 -75 27 -125 34 -153 71 -144 191 3 53 1 87
-9 111 l-14 34 20 -24 c17 -19 20 -38 20 -116 0 -77 3 -97 20 -117 23 -30 76
-53 141 -63 l46 -7 -4 54 c-2 29 -10 139 -17 243 l-12 190 93 185 c92 181 145
319 194 504 l23 89 31 -69 c32 -69 32 -69 121 -115 170 -89 447 -187 729 -258
147 -36 504 -110 617 -126 53 -8 47 4 84 -157 l17 -77 30 17 c71 41 126 128
203 321 42 104 97 197 151 253 l35 36 -41 114 c-68 184 -161 362 -237 457
-120 149 -300 287 -526 402 -125 63 -309 138 -395 160 -49 12 -53 15 -59 48
-75 435 -165 832 -260 1149 -67 225 -275 798 -378 1045 l-45 109 47 -28 c26
-15 116 -71 200 -125z m-4614 -2263 c157 -43 256 -100 378 -215 114 -108 206
-229 269 -356 112 -225 133 -440 80 -795 -53 -347 -114 -690 -123 -690 -5 0
-30 14 -55 31 -161 111 -435 199 -619 199 -58 0 -64 2 -64 21 0 11 18 166 41
345 39 316 40 325 24 386 -17 68 -51 119 -99 149 -24 16 -45 19 -96 17 l-66
-3 -283 -242 -284 -241 -58 117 c-92 184 -227 352 -384 479 -38 31 -71 57 -73
58 -2 1 23 26 55 55 31 30 118 112 193 183 338 323 462 412 669 481 141 46
366 56 495 21z m4870 -255 c21 -95 34 -177 29 -181 -4 -4 -59 -24 -121 -43
-77 -24 -114 -31 -117 -24 -19 67 -96 399 -93 402 3 3 61 13 129 23 85 12 126
15 130 8 4 -6 23 -89 43 -185z m413 94 c155 -76 342 -199 433 -285 l65 -61
-50 24 c-132 64 -346 123 -482 134 -51 3 -83 10 -83 17 0 16 -19 175 -25 209
-2 15 -1 27 3 27 5 0 67 -29 139 -65z m31 -509 c313 -68 603 -263 721 -486 18
-33 26 -58 19 -55 -7 2 -161 31 -343 65 -371 68 -405 76 -560 127 -176 58
-495 201 -495 223 0 30 175 125 257 140 71 13 317 4 401 -14z m-6943 -385
c162 -123 298 -304 379 -507 43 -108 44 -120 12 -128 -40 -10 -55 3 -92 82
-39 87 -92 172 -105 172 -5 0 -381 -320 -836 -711 -729 -626 -830 -709 -853
-704 -27 6 -254 116 -283 137 -16 12 30 56 455 444 361 329 1223 1110 1246
1130 2 1 -6 16 -19 33 l-23 31 29 30 c16 16 31 30 33 30 3 0 28 -17 57 -39z
m1773 -1067 c129 -23 280 -83 384 -151 32 -21 36 -28 26 -40 -7 -8 -23 -19
-36 -24 -19 -8 -31 -3 -70 30 -103 86 -234 132 -377 132 -79 0 -112 -6 -224
-37 -15 -5 -26 -2 -32 7 -11 17 -11 70 -1 86 16 25 181 24 330 -3z m8128 -566
c98 -105 178 -194 177 -198 -1 -4 -42 -68 -92 -141 -127 -191 -186 -299 -222
-406 l-31 -93 -136 -124 c-362 -329 -692 -580 -1063 -811 -170 -106 -190 -121
-144 -111 85 20 419 181 670 323 167 95 455 266 498 295 15 11 27 15 27 9 0
-11 -101 -505 -103 -507 -1 0 -22 -6 -47 -13 -25 -7 -90 -37 -146 -66 -55 -30
-139 -67 -187 -83 l-86 -29 52 -7 c28 -3 102 -6 162 -6 l110 -1 -300 -120
c-370 -148 -482 -187 -551 -195 -48 -6 -58 -4 -94 21 -22 15 -40 31 -40 35 0
26 206 170 425 295 168 97 307 185 292 185 -13 0 -233 -84 -362 -138 -67 -28
-215 -95 -330 -150 -284 -135 -285 -135 -285 -114 0 50 152 351 267 530 29 45
51 82 48 82 -2 0 -52 -57 -110 -127 -92 -110 -194 -253 -273 -383 l-22 -35 0
35 c0 27 45 126 169 375 173 347 232 448 373 636 l79 106 315 7 316 8 96 35
c54 20 100 38 103 42 4 3 -10 103 -31 221 l-37 215 -137 202 -136 202 237 76
c131 42 263 85 293 95 30 10 60 19 66 19 6 1 91 -85 190 -191z m1374 -343
c127 -21 301 -67 397 -105 490 -196 1033 -798 1576 -1747 122 -212 371 -682
365 -689 -2 -2 -38 46 -81 106 -141 200 -279 363 -466 551 -106 105 -230 218
-288 261 -439 328 -845 408 -1189 232 -48 -24 -91 -41 -95 -37 -28 32 -908
1377 -904 1383 7 12 174 50 264 60 99 11 301 4 421 -15z m-476 -771 l256 -705
-31 -45 c-73 -106 -150 -309 -208 -546 -98 -399 -139 -784 -148 -1393 -12
-823 57 -1457 244 -2228 25 -104 43 -190 40 -193 -2 -2 -136 -68 -298 -145
-281 -135 -335 -163 -293 -154 84 19 648 95 654 88 4 -4 24 -62 44 -128 103
-328 239 -688 373 -985 41 -91 185 -380 320 -643 135 -263 242 -482 237 -486
-19 -17 -796 -521 -803 -521 -11 0 -251 495 -366 755 -636 1436 -1076 3071
-1224 4550 -42 417 -46 512 -46 1035 0 418 4 549 18 695 23 228 51 435 83 598
84 433 337 832 661 1044 79 52 196 112 219 113 6 0 127 -318 268 -706z m-6253
248 c156 -58 492 -165 784 -248 l199 -57 243 -195 c134 -107 243 -198 243
-201 0 -7 -422 -241 -434 -241 -4 0 -117 93 -249 207 -304 259 -287 246 -252
198 132 -180 341 -422 525 -605 291 -290 717 -614 980 -743 100 -50 109 -52
185 -52 103 0 215 36 385 123 l125 64 21 -27 c12 -15 31 -45 43 -66 l22 -38
-27 -24 c-56 -53 -281 -172 -447 -239 -219 -87 -224 -90 -167 -82 101 13 202
38 328 80 131 43 334 126 360 147 7 5 14 8 16 6 27 -33 74 -115 68 -120 -4 -4
-89 -41 -189 -83 -351 -144 -473 -171 -743 -163 -103 3 -206 13 -275 26 -244
45 -527 138 -752 246 -73 35 -133 62 -133 60 0 -8 295 -187 376 -228 113 -57
308 -129 547 -203 103 -32 184 -61 180 -65 -19 -18 -122 -51 -206 -65 -178
-31 -377 -2 -697 102 -90 29 -166 51 -168 49 -2 -2 116 -64 263 -138 l267
-133 -59 -27 c-186 -83 -448 -98 -748 -42 -565 105 -1397 393 -1665 575 -67
46 -204 187 -286 295 -102 134 -345 515 -328 515 2 0 51 -31 107 -68 430 -288
1038 -603 1488 -770 73 -27 145 -53 159 -57 14 -4 -110 61 -275 143 -442 222
-687 366 -1050 618 -342 237 -679 442 -756 459 -24 6 -66 -27 -416 -324 -213
-181 -389 -328 -391 -326 -2 2 11 117 29 256 29 230 34 257 57 284 33 41 191
186 338 311 l120 102 296 -63 c342 -73 328 -68 523 -153 188 -81 371 -172 645
-322 118 -65 361 -195 540 -290 179 -94 363 -192 410 -217 47 -25 81 -41 75
-35 -5 5 -306 208 -668 450 l-657 440 166 56 c91 31 167 56 169 56 2 0 39 -22
83 -49 287 -179 1278 -725 1777 -980 189 -96 186 -94 -55 50 -213 127 -585
372 -810 532 -351 250 -1390 1042 -1398 1066 -6 18 348 159 542 216 173 50
265 65 381 61 92 -3 111 -7 236 -54z m3323 -692 c86 -236 97 -272 85 -287 -71
-93 -317 -355 -445 -474 -167 -155 -331 -256 -486 -299 -70 -19 -128 -26 -128
-15 0 3 25 52 55 108 38 71 65 108 88 123 127 82 400 329 550 498 72 81 69 80
-83 -34 -265 -199 -521 -374 -630 -431 -62 -32 -70 -34 -165 -33 -91 0 -108 3
-191 36 -50 20 -111 46 -135 58 -56 28 -54 26 123 -114 109 -86 149 -124 154
-144 14 -69 16 -65 -24 -59 -140 23 -501 277 -766 539 l-149 148 139 95 c212
144 266 192 303 265 l31 63 15 -37 c32 -76 31 -91 -11 -139 -22 -25 -59 -73
-83 -108 l-45 -64 35 27 c67 53 165 116 200 128 47 17 87 -1 113 -51 l20 -36
-51 -79 c-27 -44 -85 -133 -128 -198 -64 -100 -73 -117 -49 -101 86 54 281
192 335 235 34 28 67 50 74 50 20 0 79 -35 148 -88 78 -59 112 -65 179 -31 56
29 121 92 255 246 121 140 196 213 221 213 17 0 169 -80 271 -142 35 -22 65
-38 66 -36 2 2 -7 40 -20 85 -40 138 -42 172 -10 268 15 47 30 85 34 85 4 0
51 -121 105 -270z m-6761 -434 l-17 -128 -60 -30 c-48 -24 -89 -35 -196 -49
-74 -10 -151 -21 -170 -25 -30 -5 -21 4 70 69 58 41 168 124 245 184 77 61
141 110 142 109 2 -2 -5 -60 -14 -130z m10878 -102 c84 -25 219 -100 337 -188
235 -177 685 -658 904 -967 446 -629 894 -1790 1273 -3294 71 -280 82 -333 71
-349 -7 -11 -17 -21 -22 -23 -5 -1 -502 797 -1104 1774 -602 977 -1262 2048
-1467 2380 l-372 603 42 22 c111 57 234 72 338 42z m-3920 -148 c142 -30 267
-112 327 -216 23 -39 27 -56 27 -125 0 -91 -12 -121 -77 -191 -156 -169 -484
-215 -723 -100 -92 44 -157 103 -192 174 -92 188 41 381 310 452 87 23 235 25
328 6z m615 -202 c27 -71 16 -208 -25 -306 -40 -96 -121 -225 -213 -342 -58
-73 -64 -85 -37 -65 56 39 163 154 212 227 54 81 126 226 162 327 l24 70 1
-50 c0 -80 -20 -222 -46 -323 -26 -100 -98 -290 -145 -384 -16 -32 -26 -58
-22 -58 13 0 98 111 149 195 83 137 214 457 214 522 0 15 2 15 14 3 7 -8 70
-109 138 -225 l126 -210 -14 -155 c-7 -85 -13 -166 -14 -180 0 -51 -317 -395
-462 -503 -145 -109 -272 -156 -473 -176 -227 -23 -416 -10 -614 42 l-83 22 5
37 c7 53 56 153 104 214 66 82 217 188 468 327 66 37 114 67 107 67 -24 0
-209 -63 -296 -102 -122 -53 -206 -104 -371 -221 -244 -174 -372 -217 -486
-165 -112 51 -218 205 -227 328 -7 91 3 125 51 171 79 76 345 190 652 279 102
30 112 31 223 24 363 -21 634 105 751 348 43 91 66 169 77 266 8 72 21 71 50
-4z m-7478 -51 l214 -97 -6 -75 c-8 -86 -24 -167 -38 -193 -7 -15 -21 -18 -76
-17 -117 2 -112 -4 -143 142 -15 71 -30 131 -33 134 -3 4 -6 -34 -6 -83 0 -57
-5 -96 -12 -105 -7 -9 -89 -44 -183 -78 -157 -58 -412 -177 -402 -188 3 -2 67
14 143 36 329 94 412 107 509 77 l40 -12 -1 -52 c-2 -80 -10 -94 -63 -131 -28
-19 -48 -38 -45 -42 3 -5 29 -9 58 -9 l52 0 58 70 c33 39 60 69 61 68 4 -5
-42 -358 -46 -363 -3 -2 -29 2 -59 10 -72 19 -238 19 -320 -1 -80 -18 -307
-109 -340 -135 l-25 -19 45 6 c25 3 110 19 190 35 244 47 407 61 464 39 35
-13 55 -57 67 -148 10 -72 9 -85 -18 -187 l-28 -110 -136 4 c-108 3 -165 -1
-278 -20 -126 -21 -149 -22 -213 -11 -39 7 -72 11 -74 9 -2 -2 8 -28 24 -58
19 -38 34 -55 50 -57 13 -2 80 10 150 27 223 54 314 51 450 -15 63 -31 81 -55
89 -121 5 -48 3 -52 -32 -92 -64 -70 -165 -145 -178 -132 -19 19 -131 12 -291
-16 -205 -37 -409 -40 -473 -6 -23 13 -44 27 -48 33 -3 5 -11 10 -17 10 -16 0
49 -71 102 -111 59 -45 146 -78 230 -87 l64 -7 13 -95 c7 -52 18 -105 24 -117
8 -16 10 -64 6 -159 -3 -74 -7 -138 -10 -140 -7 -7 -178 56 -241 89 -58 31
-113 91 -149 162 l-15 30 132 -2 131 -2 -65 15 c-223 50 -295 101 -383 272
-50 96 -77 178 -77 230 0 18 16 86 36 150 28 94 37 144 45 252 15 219 29 322
50 360 13 25 25 87 39 215 11 99 20 197 20 218 0 56 35 149 97 262 69 124 71
126 163 188 88 60 446 246 474 247 11 0 116 -44 234 -97z m1402 -63 c224 -385
481 -700 681 -833 46 -30 139 -82 207 -116 67 -34 122 -63 122 -65 0 -3 -18
-31 -39 -64 -177 -266 -325 -704 -363 -1075 -12 -110 -13 -113 -66 -197 -57
-91 -192 -355 -192 -377 0 -20 -25 -16 -88 16 -31 16 -133 61 -227 101 -348
147 -568 273 -859 495 -18 13 -17 16 24 62 62 70 98 138 116 223 15 65 16 86
5 160 -7 46 -20 108 -30 137 -18 52 -18 53 10 178 60 276 80 487 78 814 l-3
254 274 208 c150 115 274 208 276 206 1 -1 35 -58 74 -127z m10142 -2132 c752
-1190 1408 -2227 1457 -2305 l90 -143 -142 -102 c-109 -77 -1577 -1058 -1634
-1091 -7 -5 -39 40 -86 121 -292 497 -530 1028 -743 1656 -74 219 -85 259 -73
270 8 7 273 190 589 406 658 450 665 455 630 445 -35 -10 -1126 -445 -1237
-493 l-91 -40 -31 117 c-294 1116 -371 2242 -205 2991 28 123 92 330 103 330
3 0 621 -973 1373 -2162z m-11085 1870 c30 -18 69 -45 86 -59 l31 -26 -28 -99
c-45 -156 -120 -367 -150 -417 -26 -46 -59 -66 -90 -54 -8 3 -34 32 -58 63
l-43 58 1 95 c1 154 57 394 106 456 18 23 26 26 56 21 19 -3 59 -20 89 -38z
m4938 -645 c-22 -136 -58 -203 -123 -230 -20 -8 -101 -26 -182 -40 -231 -39
-412 -110 -607 -240 -86 -57 -191 -148 -182 -158 3 -3 97 42 210 98 207 105
322 149 417 162 45 6 52 5 52 -10 0 -25 -262 -281 -355 -347 -227 -160 -450
-238 -684 -238 -104 0 -251 26 -320 56 l-43 19 82 70 c46 39 101 85 124 104
34 28 37 33 16 27 -193 -51 -303 -46 -344 16 -40 61 -86 259 -102 434 l-7 79
38 -34 c118 -103 352 -161 653 -161 325 0 608 61 935 203 117 51 328 164 387
208 36 27 42 24 35 -18z m-2330 -143 l67 -70 -38 -29 c-100 -72 -240 -252
-317 -406 -32 -66 -107 -255 -107 -272 0 -4 20 26 44 68 53 90 181 263 245
332 72 78 252 210 265 196 5 -5 39 -540 34 -543 -1 -1 -61 -21 -133 -45 -71
-23 -202 -77 -290 -121 -226 -111 -362 -204 -426 -293 l-29 -40 6 49 c51 424
182 786 373 1031 72 92 200 213 226 213 6 0 42 -32 80 -70z m2551 -178 c246
-349 446 -523 724 -629 47 -18 84 -37 82 -43 -3 -14 -226 -302 -318 -411 -164
-194 -296 -289 -401 -289 -62 0 -160 43 -186 83 -44 67 -67 219 -76 497 l-6
205 -22 -150 c-28 -185 -73 -373 -113 -470 -66 -156 -162 -193 -285 -110 l-37
26 18 -24 c162 -207 182 -242 165 -299 -26 -84 -192 -218 -271 -218 -57 0
-170 73 -337 217 l-49 41 -29 -54 c-24 -44 -35 -55 -62 -60 -76 -14 -217 29
-270 82 -27 26 -33 40 -33 74 0 50 26 99 58 107 41 10 100 -4 174 -41 39 -20
73 -34 75 -33 1 2 -2 21 -8 42 -6 22 -9 93 -7 164 3 112 7 132 30 181 44 90
122 174 369 396 129 117 262 241 297 278 146 156 289 356 375 523 l41 81 27
-49 c15 -27 49 -79 75 -117z m1168 -667 c68 -68 81 -92 72 -130 -9 -34 -236
-239 -298 -268 -67 -32 -157 -49 -230 -45 l-57 3 117 146 c64 80 157 197 207
261 75 97 92 115 107 107 9 -5 46 -38 82 -74z m-6658 -215 l38 -204 -84 -606
c-356 -2592 -618 -4452 -626 -4460 -6 -6 -44 -17 -85 -26 -141 -30 -286 15
-393 122 -50 50 -56 60 -51 88 3 17 102 765 220 1661 364 2756 384 2899 398
2930 8 17 34 163 58 326 l43 295 194 32 c107 18 203 39 215 47 12 8 24 11 28
7 3 -4 24 -99 45 -212z m-1572 15 c18 -38 59 -108 90 -155 l58 -85 -22 -140
c-12 -77 -28 -154 -35 -172 -8 -17 -10 -33 -5 -35 5 -2 2 -55 -6 -118 -41
-332 -48 -471 -48 -920 0 -488 9 -636 64 -1021 65 -454 189 -945 335 -1328
l32 -86 -26 -197 c-14 -108 -29 -199 -32 -203 -8 -7 -93 198 -166 400 -225
624 -361 1283 -404 1964 -13 210 -7 941 10 1116 31 324 68 595 112 818 l21
109 -21 71 c-11 40 -23 95 -27 122 l-5 50 21 -60 c12 -33 36 -91 54 -130z
m4759 73 c29 -62 90 -174 134 -248 91 -155 113 -205 113 -258 0 -34 -12 -49
-136 -179 -130 -137 -134 -142 -93 -128 23 8 68 15 101 15 56 0 63 -2 97 -37
31 -31 41 -52 55 -116 32 -138 11 -262 -56 -324 -44 -41 -116 -63 -323 -99
-231 -39 -341 -66 -494 -119 -213 -74 -405 -172 -539 -273 -107 -80 -111 -101
-9 -47 237 126 555 203 877 212 l185 5 -49 -48 c-27 -27 -77 -92 -112 -144
-64 -98 -122 -164 -209 -239 -27 -24 -43 -39 -35 -35 9 5 93 55 187 112 245
146 355 193 453 192 l35 -1 -60 -56 c-202 -190 -491 -384 -802 -536 -197 -96
-294 -129 -404 -135 -81 -4 -91 -2 -139 24 -28 15 -80 54 -116 87 -35 32 -64
57 -64 54 0 -2 11 -30 25 -60 13 -31 30 -85 36 -121 16 -86 -3 -137 -80 -215
-64 -66 -125 -104 -193 -122 -62 -17 -98 -5 -229 73 -207 125 -375 272 -463
405 -53 81 -106 132 -168 164 -206 105 -334 196 -469 336 -162 167 -242 317
-273 510 -13 79 -12 98 12 269 l25 185 116 -115 c183 -181 356 -317 559 -440
91 -55 245 -136 258 -136 4 0 -40 35 -97 77 -63 47 -175 149 -284 259 -99 100
-199 194 -222 209 -26 17 -47 40 -56 63 -19 47 -42 188 -62 372 -8 80 -17 162
-20 183 -3 20 -3 37 -1 37 2 0 60 -40 129 -89 271 -195 502 -324 810 -455 202
-86 436 -201 580 -284 l97 -56 0 -48 c0 -126 -87 -258 -302 -453 l-86 -79 56
-56 c31 -30 96 -98 144 -152 61 -67 103 -104 140 -122 28 -14 53 -24 56 -22 2
3 -46 74 -107 160 -61 85 -114 161 -116 169 -4 9 10 24 37 42 119 79 224 213
264 339 27 85 34 193 24 386 -3 73 0 97 24 172 33 103 134 315 198 413 169
263 376 426 700 551 94 37 243 83 270 83 11 1 33 -34 71 -111z m3770 -24 c142
-104 112 -207 -121 -410 -47 -41 -86 -73 -88 -71 -2 2 19 70 46 152 28 82 50
151 50 154 0 3 -11 -11 -25 -29 -48 -65 -123 -225 -163 -346 -48 -145 -63
-175 -102 -206 -17 -12 -50 -41 -73 -64 -90 -87 -257 -182 -335 -190 -39 -4
-58 0 -117 29 -38 19 -106 61 -150 94 -77 58 -175 153 -175 171 0 36 161 215
272 303 l49 39 139 -7 c163 -7 235 4 330 52 109 55 258 187 356 315 21 27 43
50 49 50 5 0 32 -16 58 -36z m428 -147 c103 -68 159 -135 159 -190 0 -45 -38
-113 -100 -177 -54 -56 -198 -168 -251 -195 -79 -41 -293 -85 -498 -101 l-83
-7 182 217 c180 215 464 516 486 516 6 0 54 -28 105 -63z m105 -491 c-38 -100
-100 -188 -235 -331 -75 -80 -132 -150 -148 -183 -29 -60 -29 -73 8 -335 l21
-147 -193 -426 c-208 -459 -213 -468 -283 -462 -79 8 -58 71 165 516 92 183
166 332 164 330 -2 -2 -62 -86 -135 -188 -72 -102 -157 -215 -187 -252 -88
-108 -94 -91 -29 75 24 62 62 153 85 202 26 57 33 81 20 65 -192 -234 -203
-241 -296 -181 -79 51 -107 96 -101 162 6 55 66 186 119 257 38 52 35 52 187
-14 57 -25 105 -44 107 -42 2 2 -1 37 -6 78 -20 153 3 203 159 351 l97 92
-206 -155 c-209 -158 -271 -198 -309 -198 -58 0 -160 89 -210 183 l-24 45 39
53 c21 30 79 103 128 162 86 104 92 109 121 102 280 -57 760 82 921 268 22 25
41 44 43 42 1 -1 -8 -32 -22 -69z m814 -183 c28 -104 54 -195 56 -205 6 -20
-91 -59 -286 -113 -74 -21 -146 -44 -160 -53 -14 -9 -74 -55 -133 -104 -60
-48 -111 -88 -115 -88 -4 0 -29 61 -56 134 l-48 135 45 58 c110 141 213 225
377 308 103 52 243 114 256 115 6 0 35 -84 64 -187z m-9175 87 c47 -11 90 -19
97 -17 11 2 78 -152 78 -182 1 -27 -244 -1881 -247 -1877 -7 6 -53 340 -69
496 -21 211 -30 824 -15 1056 20 304 47 544 62 544 4 0 47 -9 94 -20z m6642
-176 c176 -46 304 -183 421 -449 86 -197 83 -285 -18 -441 -12 -20 -9 -26 42
-76 64 -62 161 -206 195 -287 49 -121 16 -242 -94 -340 l-55 -49 29 -16 c54
-27 131 -95 164 -142 40 -59 69 -150 69 -217 0 -119 -66 -282 -152 -381 l-43
-48 -85 15 c-212 39 -321 51 -470 51 -99 0 -171 -4 -199 -13 -33 -9 -46 -10
-51 -1 -4 6 -13 93 -20 193 -12 178 -11 184 10 247 29 85 83 188 126 238 43
51 104 72 233 81 87 6 92 7 51 14 -90 15 -189 50 -224 79 -74 61 -138 256
-140 428 -2 160 22 179 281 222 l138 23 -135 7 c-222 10 -332 43 -385 112 -15
20 -37 66 -51 104 -23 68 -84 436 -84 511 0 71 74 131 189 151 58 11 186 3
258 -16z m-1314 -41 c33 -17 303 -277 319 -307 12 -23 -5 -38 -95 -86 -76 -42
-144 -48 -218 -22 -117 41 -246 145 -318 255 -46 72 -71 148 -54 169 17 20
325 12 366 -9z m680 -17 c101 -42 177 -239 177 -456 0 -177 -31 -259 -143
-377 l-72 -76 39 7 c22 4 72 21 113 37 88 35 123 36 158 7 23 -20 27 -35 36
-123 14 -124 5 -324 -16 -386 -19 -57 -73 -122 -115 -139 -16 -7 -30 -15 -30
-18 0 -3 20 -26 44 -52 97 -103 130 -212 129 -425 0 -127 -24 -359 -38 -374
-2 -2 -21 10 -42 27 -48 38 -199 130 -283 172 -108 55 -197 84 -372 124 -31 7
-31 11 4 151 35 135 77 213 165 307 l78 83 -38 40 c-20 22 -51 67 -67 99 -60
119 -33 235 81 347 l57 56 -61 6 c-88 8 -102 35 -113 212 -17 266 103 675 219
745 38 24 47 24 90 6z m-873 -331 c135 -109 249 -202 254 -206 11 -10 -8 -59
-23 -59 -8 0 -94 46 -191 103 l-35 20 37 -39 c21 -21 66 -61 102 -89 36 -27
65 -55 65 -62 2 -24 -42 -54 -69 -48 -79 19 -257 169 -330 277 -22 33 -49 89
-60 125 -23 75 -28 202 -7 186 6 -6 122 -99 257 -208z m3306 -126 c51 -118
107 -258 125 -312 l33 -98 -19 -35 c-17 -33 -111 -114 -132 -114 -22 0 -222
306 -283 432 -60 123 -51 191 34 264 45 39 125 85 141 80 6 -1 51 -99 101
-217z m807 153 c36 -55 83 -150 98 -200 12 -41 11 -43 -17 -73 -42 -45 -186
-111 -374 -173 -227 -74 -232 -75 -263 -34 -26 35 -66 139 -87 226 -15 64 -8
75 70 110 75 34 500 181 526 181 14 1 30 -12 47 -37z m160 -498 c40 -146 52
-227 38 -261 -21 -51 -185 -131 -423 -208 l-113 -37 -22 26 c-26 31 -60 135
-69 212 -6 51 -5 55 27 87 19 18 77 59 129 89 123 73 380 200 394 195 6 -2 23
-48 39 -103z m-4615 -37 l32 -33 -30 -294 c-32 -313 -42 -385 -65 -484 -19
-79 -19 -222 0 -311 l15 -69 -66 -161 c-37 -88 -105 -248 -152 -355 -46 -107
-91 -210 -98 -227 l-14 -33 -96 103 c-136 144 -285 323 -438 527 -136 180
-333 467 -325 473 2 2 52 29 112 60 357 187 616 378 902 666 93 94 175 171
180 171 6 0 25 -15 43 -33z m-3934 -362 c49 -56 62 -83 184 -390 223 -563 371
-897 528 -1188 483 -896 1004 -1422 1844 -1860 526 -274 1182 -471 1835 -552
72 -9 202 -29 290 -45 709 -128 1312 -208 1815 -240 209 -13 723 -13 900 0
683 50 1278 199 2210 553 173 65 401 150 505 187 1061 377 2035 946 2995 1748
619 517 1298 1212 1741 1782 41 53 86 111 101 130 l27 35 -35 -135 c-97 -374
-290 -1018 -427 -1425 -371 -1096 -716 -1816 -1037 -2159 -239 -255 -700 -503
-1308 -703 -224 -73 -558 -166 -681 -189 -47 -9 -144 -29 -216 -45 -213 -47
-8339 -1899 -8351 -1904 -9 -3 -1184 1279 -1807 1973 -122 135 -400 470 -541
651 -385 495 -761 1082 -986 1542 l-47 95 53 380 c113 810 175 1262 221 1583
l47 335 44 -50 c24 -27 67 -76 96 -109z m7414 55 c34 -15 66 -39 91 -69 91
-109 281 -435 264 -452 -6 -6 -172 -66 -369 -134 -490 -168 -600 -214 -736
-307 -54 -36 -57 -37 -48 -14 34 89 330 770 368 847 52 103 73 122 166 146 74
19 200 11 264 -17z m1257 -152 c15 -46 29 -116 32 -156 l6 -73 -46 -43 c-48
-47 -162 -98 -265 -119 l-54 -12 -59 63 c-70 74 -90 110 -91 164 -1 53 40 95
139 144 64 31 284 114 305 114 4 0 19 -37 33 -82z m-4240 -270 c140 -200 158
-238 159 -340 l1 -83 -120 1 c-155 2 -199 13 -214 57 -22 61 -24 141 -7 219
16 70 45 271 46 313 0 18 2 18 20 -5 11 -14 63 -87 115 -162z m3861 -335 c-12
-137 1 -122 -149 -171 -72 -23 -186 -70 -252 -103 -155 -78 -388 -210 -382
-215 3 -3 89 27 193 66 219 82 343 117 453 126 l78 7 17 -44 c8 -24 31 -87 50
-140 l34 -96 -63 -6 c-76 -7 -226 -45 -360 -90 -407 -138 -925 -439 -1219
-707 l-58 -54 -38 44 c-30 36 -36 48 -27 59 7 8 68 58 137 111 435 339 839
576 1130 665 71 21 77 24 36 19 -76 -9 -248 -61 -380 -115 -123 -50 -358 -175
-702 -373 l-199 -114 -7 90 c-9 109 -37 229 -85 357 -28 75 -32 95 -21 103 7
5 73 43 146 84 450 256 1090 490 1532 559 47 7 98 13 114 14 l28 1 -6 -77z
m-5959 -161 c614 -942 1359 -1668 2248 -2187 788 -461 1724 -755 2695 -845 69
-6 126 -13 128 -14 10 -10 -455 -14 -691 -6 -430 15 -737 39 -1186 96 -1165
145 -1912 340 -2606 678 -237 116 -372 191 -559 313 -567 370 -1024 851 -1264
1330 -31 60 -59 103 -72 109 -22 10 -58 83 -185 379 -101 238 -100 224 -13
169 40 -25 157 -91 260 -145 103 -54 250 -134 326 -177 l138 -78 103 97 c56
54 161 144 234 199 73 55 173 138 222 185 50 46 92 84 95 84 3 0 60 -84 127
-187z m2518 -357 c193 -65 352 -120 354 -122 3 -2 -9 -18 -27 -36 -30 -31 -94
-155 -107 -210 -4 -15 -11 -30 -16 -32 -4 -3 -74 35 -155 85 -81 50 -148 89
-150 88 -1 -2 45 -57 102 -123 58 -66 119 -137 136 -158 l30 -38 -48 20 c-116
46 -452 181 -487 196 -22 9 -36 12 -33 7 3 -5 131 -86 286 -182 271 -167 280
-174 279 -204 -1 -44 -14 -135 -21 -141 -5 -5 -962 507 -981 524 -7 7 96 255
114 275 5 5 66 -13 145 -43 75 -28 139 -50 140 -48 2 2 -50 48 -116 103 -66
54 -120 103 -120 109 0 5 12 40 26 76 l26 67 137 -47 c75 -26 294 -101 486
-166z m1117 -19 c156 -31 282 -93 377 -187 70 -69 107 -128 133 -212 77 -253
-89 -513 -394 -618 -120 -41 -253 -55 -375 -40 -254 31 -462 161 -549 344
-143 302 77 632 476 712 88 18 243 18 332 1z m2587 -646 c218 -548 488 -1090
658 -1323 20 -26 34 -49 32 -51 -7 -6 -368 -75 -474 -91 -165 -24 -350 -43
-530 -56 -215 -15 -765 -6 -965 15 -259 28 -526 70 -543 86 -8 7 100 430 150
585 48 151 143 333 248 477 37 50 68 77 157 135 62 40 116 73 120 73 11 0 11
1 93 -540 71 -460 104 -638 88 -465 -4 39 -7 174 -7 300 -1 221 0 234 27 329
34 123 131 366 200 506 l52 105 59 23 c32 13 62 20 66 15 4 -4 88 -210 185
-458 98 -247 180 -444 182 -438 4 11 -81 903 -92 965 -5 31 5 34 131 36 l71 2
92 -230z m-4344 -210 l140 -75 28 -79 c15 -44 26 -81 24 -83 -9 -8 -359 266
-467 366 l-45 42 90 -48 c50 -26 153 -81 230 -123z m789 -426 c149 -80 274
-149 279 -153 6 -6 37 -158 37 -184 0 -12 -399 193 -535 276 -72 43 -121 80
-123 91 -2 10 -1 38 3 62 6 41 14 50 54 53 8 0 136 -65 285 -145z m1576 -393
c72 -211 129 -385 127 -387 -1 -2 -65 10 -142 27 -245 51 -499 123 -748 211
-116 41 -147 55 -143 68 2 8 32 81 66 161 l62 146 101 6 c56 3 135 13 176 22
62 15 80 15 112 5 35 -12 39 -17 54 -74 70 -265 83 -309 88 -296 3 8 15 119
27 245 12 127 26 231 30 233 4 1 16 9 26 17 10 7 22 11 26 7 4 -4 66 -180 138
-391z m-981 243 c4 -4 51 -291 51 -316 0 -14 -20 -9 -122 33 -68 28 -127 54
-132 59 -13 13 60 159 101 202 31 31 41 36 67 31 17 -3 33 -7 35 -9z m-6093
-451 c244 -403 595 -889 942 -1306 99 -119 1892 -2482 3790 -4997 69 -91 114
-154 100 -140 -14 14 -891 1074 -1950 2355 -1058 1282 -2027 2454 -2153 2605
-266 321 -420 523 -590 780 -144 217 -357 570 -352 584 2 5 25 17 53 26 54 19
49 7 68 163 4 31 9 57 11 57 2 0 38 -57 81 -127z m13520 -1270 c-128 -255
-571 -807 -1168 -1459 -573 -626 -1391 -1442 -2098 -2095 -892 -822 -1819
-1572 -2455 -1984 -294 -191 -746 -435 -805 -435 -36 0 -260 124 -440 245
-755 504 -1641 1493 -2507 2795 -149 225 -313 483 -313 493 0 6 -6 5 1410 322
2609 585 4745 1069 6075 1376 928 215 1360 341 1780 519 146 62 400 192 475
244 36 25 68 45 73 45 4 1 -8 -29 -27 -66z m-8645 -5220 c13 -16 12 -17 -3 -4
-10 7 -18 15 -18 17 0 8 8 3 21 -13z"/>
<path d="M9585 19110 c-82 -10 -152 -19 -155 -20 -17 -4 373 -140 402 -140 9
0 10 90 2 143 -7 37 -7 37 -53 36 -25 -1 -113 -10 -196 -19z"/>
<path d="M17944 18748 c286 -325 669 -883 998 -1458 147 -258 394 -742 526
-1035 372 -823 709 -1797 948 -2744 36 -140 66 -256 67 -258 3 -3 145 194 281
392 49 71 142 202 206 290 64 88 201 282 305 430 301 431 365 513 563 715
l181 185 1 -286 c0 -213 -4 -304 -14 -355 -8 -38 -26 -148 -40 -244 -66 -456
-226 -1598 -225 -1606 2 -19 71 293 129 576 199 988 318 1996 361 3055 11 287
9 1368 -3 1380 -9 10 -607 180 -978 280 -1010 270 -2023 496 -3017 675 -153
27 -291 52 -307 55 -28 5 -28 5 18 -47z"/>
</g>
</svg>
