<svg xmlns="http://www.w3.org/2000/svg" width="1em" height="1em" viewBox="0 0 24 24"><path fill="currentColor" d="m12 14.052l1.65 1.015q.217.137.444-.022t.171-.426l-.442-1.886l1.47-1.264q.21-.186.12-.431q-.09-.246-.363-.27l-1.917-.176l-.76-1.761q-.106-.243-.373-.243t-.373.243l-.76 1.761l-1.917.175q-.273.025-.363.27t.12.432l1.47 1.264l-.442 1.886q-.056.268.17.426t.445.022zM9.073 19H6.615q-.67 0-1.143-.472Q5 18.056 5 17.385v-2.458L3.21 13.13q-.237-.243-.348-.538T2.75 12t.112-.593t.348-.538L5 9.073V6.615q0-.67.472-1.143Q5.944 5 6.615 5h2.458l1.796-1.79q.243-.237.538-.348T12 2.75t.593.112t.538.348L14.927 5h2.458q.67 0 1.143.472q.472.472.472 1.143v2.458l1.79 1.796q.237.243.348.538t.112.593t-.112.593t-.348.538L19 14.927v2.458q0 .67-.472 1.143q-.472.472-1.143.472h-2.458l-1.796 1.79q-.243.237-.538.348T12 21.25t-.593-.112t-.538-.348zm.427-1l2.058 2.058q.173.173.442.173t.442-.173L14.5 18h2.885q.269 0 .442-.173t.173-.442V14.5l2.058-2.058q.173-.173.173-.442t-.173-.442L18 9.5V6.615q0-.269-.173-.442T17.385 6H14.5l-2.058-2.058Q12.27 3.77 12 3.77t-.442.173L9.5 6H6.615q-.269 0-.442.173T6 6.615V9.5l-2.058 2.058q-.173.173-.173.442t.173.442L6 14.5v2.885q0 .269.173.442t.442.173zm2.5-6"/></svg>