<svg xmlns="http://www.w3.org/2000/svg" width="1em" height="1em" viewBox="0 0 24 24"><path fill="currentColor" d="M12.003 11.73q.668 0 1.14-.475t.472-1.143t-.475-1.14t-1.143-.472t-1.14.476t-.472 1.143t.475 1.14t1.143.472M12 19.677q2.82-2.454 4.458-4.991t1.638-4.39q0-2.744-1.737-4.53T12 3.981T7.641 5.766t-1.737 4.53q0 1.852 1.638 4.39q1.639 2.537 4.458 4.99m0 1.343q-3.525-3.117-5.31-5.814q-1.786-2.697-1.786-4.909q0-3.173 2.066-5.234T12 3t5.03 2.062t2.066 5.234q0 2.212-1.785 4.909q-1.786 2.697-5.311 5.814m0-10.904"/></svg>