<svg xmlns="http://www.w3.org/2000/svg" width="1em" height="1em" viewBox="0 0 24 24"><path fill="white" d="M4.126 20q-.234 0-.414-.111q-.18-.111-.28-.293q-.108-.179-.12-.387q-.01-.209.118-.421L11.3 5.212q.128-.212.308-.308T12 4.808t.391.096q.18.096.308.308l7.871 13.576q.128.212.117.42q-.01.21-.12.388q-.1.182-.28.293q-.18.111-.413.111zm.324-1h15.1L12 6zM12 17.615q.262 0 .438-.177q.177-.176.177-.438t-.177-.438q-.176-.177-.438-.177t-.438.177q-.177.176-.177.438t.177.438q.176.177.438.177m0-2.23q.213 0 .357-.144q.143-.144.143-.356v-4q0-.213-.144-.357q-.144-.143-.357-.143t-.356.143q-.143.144-.143.357v4q0 .212.144.356t.357.144M12 12.5"/></svg>